HIERARCHY
ROOT Hips
{
    OFFSET   0.000000   0.000000   0.000000
    CHANNELS 6 Xposition Yposition Zposition Zrotation Xrotation Yrotation
    JOINT Chest
    {
        OFFSET   0.000000   8.007230   0.000000
        CHANNELS 3 Zrotation Xrotation Yrotation
        JOINT Chest2
        {
            OFFSET   0.000000  22.077100   0.000000
            CHANNELS 3 Zrotation Xrotation Yrotation
            JOINT Neck
            {
                OFFSET   0.000000  23.254700   0.000000
                CHANNELS 3 Zrotation Xrotation Yrotation
                JOINT Head
                {
                    OFFSET   0.000010  14.370000   1.956610
                    CHANNELS 3 Zrotation Xrotation Yrotation
                    End Site
                    {
                        OFFSET   0.000000  19.566000   0.000000
                    }
                }
            }
            JOINT LeftCollar
            {
                OFFSET   3.911900  19.017000  -0.467063
                CHANNELS 3 Zrotation Xrotation Yrotation
                JOINT LeftShoulder
                {
                    OFFSET  10.383700   0.000000   0.000000
                    CHANNELS 3 Zrotation Xrotation Yrotation
                    JOINT LeftElbow
                    {
                        OFFSET  26.662100   0.001671   0.000522
                        CHANNELS 3 Zrotation Xrotation Yrotation
                        JOINT LeftWrist
                        {
                            OFFSET  28.869000   0.000037  -0.000114
                            CHANNELS 3 Zrotation Xrotation Yrotation
                            JOINT LeftFinger0
                            {
                                OFFSET   2.044650  -2.323450   3.252850
                                CHANNELS 3 Zrotation Xrotation Yrotation
                                JOINT LeftFinger01
                                {
                                    OFFSET   3.088140   0.000000   0.000000
                                    CHANNELS 3 Zrotation Xrotation Yrotation
                                    JOINT LeftFinger02
                                    {
                                        OFFSET   2.639460   0.000000   0.000000
                                        CHANNELS 3 Zrotation Xrotation Yrotation
                                        End Site
                                        {
                                            OFFSET   2.582190   0.000000   0.000000
                                        }
                                    }
                                }
                            }
                            JOINT LeftFinger1
                            {
                                OFFSET   8.364480   0.000000   3.252850
                                CHANNELS 3 Zrotation Xrotation Yrotation
                                JOINT LeftFinger11
                                {
                                    OFFSET   4.646930   0.000000   0.000000
                                    CHANNELS 3 Zrotation Xrotation Yrotation
                                    JOINT LeftFinger12
                                    {
                                        OFFSET   2.323470   0.000000   0.000000
                                        CHANNELS 3 Zrotation Xrotation Yrotation
                                        End Site
                                        {
                                            OFFSET   2.273050   0.000000   0.000000
                                        }
                                    }
                                }
                            }
                            JOINT LeftFinger2
                            {
                                OFFSET   8.364490   0.000016   1.078090
                                CHANNELS 3 Zrotation Xrotation Yrotation
                                JOINT LeftFinger21
                                {
                                    OFFSET   5.111620   0.000000   0.000000
                                    CHANNELS 3 Zrotation Xrotation Yrotation
                                    JOINT LeftFinger22
                                    {
                                        OFFSET   2.788150   0.000013   0.000000
                                        CHANNELS 3 Zrotation Xrotation Yrotation
                                        End Site
                                        {
                                            OFFSET   2.727660   0.000000   0.000000
                                        }
                                    }
                                }
                            }
                            JOINT LeftFinger3
                            {
                                OFFSET   7.899780   0.000016  -1.078090
                                CHANNELS 3 Zrotation Xrotation Yrotation
                                JOINT LeftFinger31
                                {
                                    OFFSET   4.646930   0.000000   0.000000
                                    CHANNELS 3 Zrotation Xrotation Yrotation
                                    JOINT LeftFinger32
                                    {
                                        OFFSET   2.323470   0.000000   0.000000
                                        CHANNELS 3 Zrotation Xrotation Yrotation
                                        End Site
                                        {
                                            OFFSET   2.273050   0.000000   0.000000
                                        }
                                    }
                                }
                            }
                            JOINT LeftFinger4
                            {
                                OFFSET   7.435080   0.000000  -3.252850
                                CHANNELS 3 Zrotation Xrotation Yrotation
                                JOINT LeftFinger41
                                {
                                    OFFSET   3.717550   0.000000   0.000000
                                    CHANNELS 3 Zrotation Xrotation Yrotation
                                    JOINT LeftFinger42
                                    {
                                        OFFSET   1.858760   0.000000   0.000000
                                        CHANNELS 3 Zrotation Xrotation Yrotation
                                        End Site
                                        {
                                            OFFSET   1.818440   0.000000   0.000000
                                        }
                                    }
                                }
                            }
                        }
                    }
                }
            }
            JOINT RightCollar
            {
                OFFSET  -3.911900  19.017000  -0.467064
                CHANNELS 3 Zrotation Xrotation Yrotation
                JOINT RightShoulder
                {
                    OFFSET -10.383700   0.000000   0.000000
                    CHANNELS 3 Zrotation Xrotation Yrotation
                    JOINT RightElbow
                    {
                        OFFSET -26.662100   0.001633   0.000260
                        CHANNELS 3 Zrotation Xrotation Yrotation
                        JOINT RightWrist
                        {
                            OFFSET -28.869000  -0.000045  -0.000080
                            CHANNELS 3 Zrotation Xrotation Yrotation
                            JOINT RightFinger0
                            {
                                OFFSET  -2.044660  -2.323490   3.252850
                                CHANNELS 3 Zrotation Xrotation Yrotation
                                JOINT RightFinger01
                                {
                                    OFFSET  -3.088140   0.000000   0.000000
                                    CHANNELS 3 Zrotation Xrotation Yrotation
                                    JOINT RightFinger02
                                    {
                                        OFFSET  -2.639450   0.000000   0.000000
                                        CHANNELS 3 Zrotation Xrotation Yrotation
                                        End Site
                                        {
                                            OFFSET  -2.582190   0.000000   0.000000
                                        }
                                    }
                                }
                            }
                            JOINT RightFinger1
                            {
                                OFFSET  -8.364480   0.000000   3.252850
                                CHANNELS 3 Zrotation Xrotation Yrotation
                                JOINT RightFinger11
                                {
                                    OFFSET  -4.646920   0.000000   0.000000
                                    CHANNELS 3 Zrotation Xrotation Yrotation
                                    JOINT RightFinger12
                                    {
                                        OFFSET  -2.323470   0.000000   0.000000
                                        CHANNELS 3 Zrotation Xrotation Yrotation
                                        End Site
                                        {
                                            OFFSET  -2.273050   0.000000   0.000000
                                        }
                                    }
                                }
                            }
                            JOINT RightFinger2
                            {
                                OFFSET  -8.364480   0.000000   1.078090
                                CHANNELS 3 Zrotation Xrotation Yrotation
                                JOINT RightFinger21
                                {
                                    OFFSET  -5.111610   0.000000   0.000000
                                    CHANNELS 3 Zrotation Xrotation Yrotation
                                    JOINT RightFinger22
                                    {
                                        OFFSET  -2.788160   0.000000   0.000000
                                        CHANNELS 3 Zrotation Xrotation Yrotation
                                        End Site
                                        {
                                            OFFSET  -2.727660   0.000000   0.000000
                                        }
                                    }
                                }
                            }
                            JOINT RightFinger3
                            {
                                OFFSET  -7.899780   0.000000  -1.078090
                                CHANNELS 3 Zrotation Xrotation Yrotation
                                JOINT RightFinger31
                                {
                                    OFFSET  -4.646930   0.000000   0.000000
                                    CHANNELS 3 Zrotation Xrotation Yrotation
                                    JOINT RightFinger32
                                    {
                                        OFFSET  -2.323470   0.000000   0.000000
                                        CHANNELS 3 Zrotation Xrotation Yrotation
                                        End Site
                                        {
                                            OFFSET  -2.273050   0.000000   0.000000
                                        }
                                    }
                                }
                            }
                            JOINT RightFinger4
                            {
                                OFFSET  -7.435090   0.000000  -3.252850
                                CHANNELS 3 Zrotation Xrotation Yrotation
                                JOINT RightFinger41
                                {
                                    OFFSET  -3.717550   0.000000   0.000000
                                    CHANNELS 3 Zrotation Xrotation Yrotation
                                    JOINT RightFinger42
                                    {
                                        OFFSET  -1.858760   0.000000   0.000000
                                        CHANNELS 3 Zrotation Xrotation Yrotation
                                        End Site
                                        {
                                            OFFSET  -1.818440   0.000000   0.000000
                                        }
                                    }
                                }
                            }
                        }
                    }
                }
            }
        }
    }
    JOINT LeftHip
    {
        OFFSET   9.782990   0.000000   0.000000
        CHANNELS 3 Zrotation Xrotation Yrotation
        JOINT LeftKnee
        {
            OFFSET  -0.000063 -41.789100   0.001657
            CHANNELS 3 Zrotation Xrotation Yrotation
            JOINT LeftAnkle
            {
                OFFSET   0.000078 -41.133200  -0.000113
                CHANNELS 3 Zrotation Xrotation Yrotation
                JOINT LeftToe
                {
                    OFFSET   0.000000  -6.358970  14.674500
                    CHANNELS 3 Zrotation Xrotation Yrotation
                    End Site
                    {
                        OFFSET   0.000000   0.000000   3.913200
                    }
                }
            }
        }
    }
    JOINT RightHip
    {
        OFFSET  -9.782990   0.000000   0.000000
        CHANNELS 3 Zrotation Xrotation Yrotation
        JOINT RightKnee
        {
            OFFSET   0.000053 -41.789200   0.000277
            CHANNELS 3 Zrotation Xrotation Yrotation
            JOINT RightAnkle
            {
                OFFSET   0.000030 -41.133200  -0.000150
                CHANNELS 3 Zrotation Xrotation Yrotation
                JOINT RightToe
                {
                    OFFSET   0.000000  -6.358960  14.674500
                    CHANNELS 3 Zrotation Xrotation Yrotation
                    End Site
                    {
                        OFFSET   0.000000   0.000000   3.913200
                    }
                }
            }
        }
    }
}
MOTION
Frames: 5
Frame Time:   0.016667
 -0.887286  89.580000  -4.328600  -3.226500  -8.568780  -5.785530   0.625213   4.658480   1.109790   1.165250   9.327950   2.179190   0.216553  -0.736357   0.004951   0.359904  -1.478330   1.773840  -5.195430  -2.575120   4.734950 -73.589100  17.771500  -1.201210  -0.939246  -2.511790 -14.647500  12.938800  -4.834130   4.267900  44.186500  40.779000 -69.877700 -32.545600   0.000000   0.000310 -11.272800   0.001558  -0.000000 -33.468000   5.859790  -8.779530 -27.751300   0.008211   0.001566 -19.425900   0.011864   0.000458 -28.675300  -2.541570   4.633260 -41.132600   0.009810   0.002900 -27.394300  -0.005587   0.001044 -28.689600  -2.543600   4.632160 -42.946700  -0.005134   0.002654 -28.602500  -0.004580   0.001139 -36.462500  -3.147050   4.245700 -54.868100  -0.005456  -0.001032 -36.542200  -0.002549  -0.009951   8.122400   0.642483   6.195920  71.253800   3.283270  -4.556590  -0.941400  -6.744400  11.247700 -15.158900  -4.913450   6.564840 -40.338700  37.414400  77.648200  28.358800   0.003671  -0.003351   9.179430   0.005605  -0.007663  29.863000   6.196010  10.656400  24.906200   0.006091   0.000892  17.434300   0.010743   0.003282  26.189700   0.323352   0.657407  26.196200   0.002640   0.001386  17.446700   0.002584   0.001344  24.347700  -1.528880  -3.374420  24.392700   0.002859   0.001483  16.245600   0.002921   0.001964  30.437000  -1.884670  -3.193210  45.734500   0.001833   0.002263  30.459100   0.002975   0.000635   1.535150   9.889800   6.299770   1.148860   0.043693   4.869330  -0.152303  -1.958980   1.425720  -0.000000   0.000000   0.000000   3.343480   6.312310   6.264930  -2.586210   5.918820  -9.908710   2.406470  -4.194570   0.080919   0.000000   0.000000  -0.000000
 -0.898302  89.580000  -4.337500  -3.226690  -8.581400  -5.778430   0.625988   4.668640   1.105740   1.166960   9.348260   2.170930   0.221570  -0.736360   0.004944   0.366389  -1.483680   1.798220  -5.199780  -2.575230   4.731870 -73.581400  17.794500  -1.201370  -0.942068  -2.519920 -14.662100  12.936000  -4.813170   4.259810  44.207600  40.788100 -69.870900 -32.528100   0.000000   0.000318 -11.264000   0.001563  -0.000000 -33.449000   5.859570  -8.788150 -27.735900   0.008210   0.001570 -19.415100   0.011864   0.000461 -28.675300  -2.541520   4.633260 -41.101900   0.009811   0.002900 -27.373800  -0.005588   0.001046 -28.689600  -2.543550   4.632150 -42.928500  -0.005134   0.002654 -28.590400  -0.004579   0.001141 -36.452400  -3.147030   4.245710 -54.853600  -0.005456  -0.001030 -36.532500  -0.002549  -0.009950   8.122130   0.642466   6.203690  71.262000   3.295080  -4.529270  -0.945113  -6.748700  11.251000 -15.141600  -4.899840   6.534720 -40.370800  37.454800  77.646400  28.386200   0.003669  -0.003346   9.193150   0.005608  -0.007663  29.941200   6.196830  10.620800  24.968800   0.006091   0.000888  17.478100   0.010744   0.003281  26.396300   0.340964   0.686527  26.369100   0.002638   0.001386  17.561900   0.002581   0.001342  24.512800  -1.534970  -3.361620  24.557800   0.002857   0.001480  16.355600   0.002919   0.001961  30.519800  -1.884850  -3.182570  45.858500   0.001832   0.002261  30.541700   0.002973   0.000637   1.538730   9.906720   6.300130   1.152440   0.022769   4.869540  -0.159181  -1.945300   1.419400   0.000000   0.000000   0.000000   3.351380   6.309030   6.270810  -2.582890   5.937720  -9.909040   2.411960  -4.214420   0.072444  -0.000000   0.000000  -0.000000
 -0.915860  89.580000  -4.352360  -3.226610  -8.601140  -5.764960   0.628183   4.684720   1.099520   1.171610   9.380400   2.158150   0.229238  -0.736378   0.004937   0.376719  -1.493180   1.831250  -5.206860  -2.575400   4.726580 -73.573500  17.829300  -1.201640  -0.946387  -2.532440 -14.683900  12.932600  -4.784050   4.251670  44.252200  40.802800 -69.859700 -32.500000   0.000000   0.000327 -11.249900   0.001567  -0.000000 -33.420000   5.859310  -8.799920 -27.712600   0.008210   0.001573 -19.398800   0.011864   0.000467 -28.675400  -2.541410   4.633260 -41.057200   0.009814   0.002900 -27.344100  -0.005588   0.001048 -28.689600  -2.543440   4.632150 -42.902400  -0.005135   0.002654 -28.573000  -0.004579   0.001142 -36.441400  -3.147000   4.245730 -54.837100  -0.005455  -0.001027 -36.521500  -0.002548  -0.009949   8.121760   0.642398   6.214450  71.274300   3.317460  -4.488590  -0.948958  -6.762950  11.259200 -15.096800  -4.872470   6.489900 -40.441200  37.536900  77.651200  28.429900   0.003665  -0.003338   9.214960   0.005610  -0.007661  30.070600   6.198130  10.563500  25.072400   0.006091   0.000879  17.550700   0.010745   0.003276  26.710800   0.367901   0.730887  26.656200   0.002632   0.001384  17.753100   0.002572   0.001335  24.767700  -1.544040  -3.342460  24.812700   0.002851   0.001474  16.525300   0.002912   0.001955  30.656800  -1.885030  -3.166410  46.063600   0.001830   0.002254  30.678300   0.002967   0.000642   1.544510   9.926110   6.300780   1.159440   0.001845   4.869740  -0.170251  -1.924740   1.407460  -0.000000   0.000000   0.000000   3.363980   6.301600   6.281760  -2.576960   5.971600  -9.909600   2.422250  -4.248140   0.054653   0.000000   0.000000   0.000000
 -0.927684  89.580000  -4.364320  -3.225690  -8.613400  -5.750970   0.632124   4.695270   1.095720   1.179670   9.401550   2.150120   0.233580  -0.739737   0.004947   0.383532  -1.502020   1.841470  -5.212830  -2.575560   4.720870 -73.574400  17.847100  -1.206300  -0.947748  -2.536530 -14.697100  12.948300  -4.772410   4.256280  44.285600  40.805100 -69.823300 -32.475400   0.000000   0.000316 -11.237700   0.001557  -0.000000 -33.399400   5.859290  -8.802920 -27.696000   0.008213   0.001570 -19.387200   0.011867   0.000476 -28.675400  -2.541250   4.633250 -41.032200   0.009815   0.002904 -27.327500  -0.005589   0.001046 -28.689600  -2.543280   4.632150 -42.889500  -0.005136   0.002657 -28.564400  -0.004579   0.001142 -36.440200  -3.146960   4.245760 -54.834800  -0.005456  -0.001024 -36.520000  -0.002549  -0.009946   8.122050   0.638545   6.217490  71.282200   3.343510  -4.465900  -0.945545  -6.798540  11.270200 -15.025900  -4.841390   6.467110 -40.526200  37.630300  77.674000  28.461000   0.003659  -0.003331   9.230530   0.005607  -0.007646  30.178600   6.199060  10.519800  25.158900   0.006089   0.000870  17.611300   0.010747   0.003269  26.910000   0.385227   0.758900  26.887200   0.002620   0.001378  17.906900   0.002557   0.001325  24.932000  -1.549870  -3.333720  24.977000   0.002840   0.001468  16.634700   0.002900   0.001946  30.771100  -1.885010  -3.158590  46.234700   0.001826   0.002244  30.792300   0.002953   0.000649   1.546900   9.928940   6.305280   1.168720   0.002531   4.865420  -0.177750  -1.910910   1.394560  -0.000000   0.000000   0.000000   3.371870   6.288800   6.296100  -2.575520   6.005400  -9.904750   2.436240  -4.277910   0.029963  -0.000000   0.000000   0.000000
 -0.939630  89.580000  -4.376250  -3.224380  -8.625680  -5.734510   0.636558   4.705730   1.092400   1.188680   9.422530   2.143010   0.237759  -0.745463   0.004960   0.390624  -1.511580   1.843050  -5.217320  -2.575700   4.717350 -73.575600  17.866600  -1.218160  -0.948540  -2.546930 -14.705500  12.974600  -4.768900   4.264570  44.295700  40.801800 -69.791300 -32.461400   0.000000   0.000306 -11.230700   0.001541  -0.000000 -33.388600   5.859390  -8.804630 -27.687400   0.008219   0.001567 -19.381200   0.011870   0.000489 -28.675400  -2.541070   4.633250 -41.021100   0.009816   0.002909 -27.320100  -0.005589   0.001045 -28.689600  -2.543090   4.632150 -42.884400  -0.005138   0.002661 -28.561000  -0.004579   0.001141 -36.440100  -3.146910   4.245770 -54.834500  -0.005458  -0.001020 -36.519800  -0.002550  -0.009944   8.122670   0.632372   6.219890  71.286300   3.367790  -4.449730  -0.942428  -6.823950  11.286300 -14.939200  -4.803450   6.447190 -40.645700  37.748800  77.701700  28.488400   0.003650  -0.003324   9.244220   0.005602  -0.007627  30.273000   6.199830  10.482200  25.234600   0.006087   0.000858  17.664200   0.010747   0.003259  27.052700   0.397957   0.779324  27.110200   0.002604   0.001371  18.055400   0.002537   0.001312  25.065900  -1.552730  -3.323510  25.110800   0.002824   0.001460  16.723800   0.002882   0.001933  30.870400  -1.884750  -3.149100  46.383300   0.001821   0.002231  30.891300   0.002935   0.000658   1.548870   9.929220   6.312030   1.179300   0.007331   4.856690  -0.185865  -1.903960   1.380730  -0.000000   0.000000   0.000000   3.381080   6.279000   6.305380  -2.577770   6.038890  -9.899950   2.444810  -4.305550   0.006384  -0.000000   0.000000  -0.000000
